<svg xmlns="http://www.w3.org/2000/svg" width="21" height="16" fill="none" viewBox="0 0 21 16">
  <path fill="#0688FF" fill-rule="evenodd" d="M18.682 6.422H2.73a.52.52 0 0 0-.52.52v6.476c0 .287.233.52.52.52h15.952a.52.52 0 0 0 .52-.52V6.942a.52.52 0 0 0-.52-.52ZM2.73 4.622a2.32 2.32 0 0 0-2.32 2.32v6.476a2.32 2.32 0 0 0 2.32 2.32h15.952a2.32 2.32 0 0 0 2.32-2.32V6.942a2.32 2.32 0 0 0-2.32-2.32H2.73Z" clip-rule="evenodd"/>
  <path fill="#0688FF" fill-rule="evenodd" d="M15.506 2.107h-9.6a.52.52 0 0 0-.519.52V4.64h10.639V2.627a.52.52 0 0 0-.52-.52Zm-9.6-1.8a2.32 2.32 0 0 0-2.32 2.32V6.44h14.24V2.627a2.32 2.32 0 0 0-2.32-2.32h-9.6Z" clip-rule="evenodd"/>
</svg>
